<?xml version="1.0" encoding="utf-8"?>
<!-- Generator: Adobe Illustrator 24.1.3, SVG Export Plug-In . SVG Version: 6.00 Build 0)  -->
<svg version="1.1" id="Layer_1" xmlns="http://www.w3.org/2000/svg" xmlns:xlink="http://www.w3.org/1999/xlink" x="0px" y="0px"
	 viewBox="0 0 96.88 94.44" style="enable-background:new 0 0 96.88 94.44;" xml:space="preserve">
<path d="M46.39,38.25c3.63-4.05,7.1-7.93,10.57-11.8c0.38-0.43,0.72-0.93,1.15-1.28c0.99-0.78,2.35-0.77,3.36-0.05
	c1.07,0.75,1.69,2.15,1.25,3.42c-0.39,1.13-0.96,2.27-1.69,3.18c-2.74,3.36-5.57,6.65-8.39,9.93c-0.52,0.61-1.18,1.09-1.87,1.7
	c0.55,0.68,0.9,1.12,1.28,1.55c4.73,5.55,9,11.46,12.56,17.96c1.01,1.86,0.81,3.71-0.6,4.79c-1.45,1.11-3.26,0.74-4.49-1.02
	c-1.2-1.72-2.22-3.6-3.5-5.25c-2.99-3.87-6.08-7.64-9.13-11.45c-0.11-0.14-0.27-0.25-0.29-0.27c-2.24,2.82-4.4,5.66-6.7,8.36
	c-1.93,2.26-4.17,4.24-6.02,6.57c-1.8,2.26-3.38,4.74-4.88,7.24c-1.3,2.18-2.84,3.12-4.65,2.43c-1.68-0.64-2.67-2.46-2.15-4.29
	c0.34-1.16,0.88-2.28,1.47-3.33c2.57-4.64,6.04-8.48,9.69-12.14c3.01-3.01,5.61-6.38,7.84-10.08c0.18-0.29,0.19-0.94,0-1.19
	c-2.99-4.02-5.94-8.08-9.08-11.98c-1.37-1.7-3.05-3.12-4.68-4.55c-1.33-1.17-1.88-2.95-1.2-4.58c0.69-1.63,2.32-2.55,3.97-2
	c1.01,0.33,1.99,0.91,2.82,1.6c3.44,2.92,6.05,6.68,8.72,10.36C43.19,34.05,44.68,35.98,46.39,38.25z"/>
<path d="M17.56,32.4c4.05-0.02,8.36,3.39,8.65,9.07c0.09,1.69,0.07,3.45-0.21,5.1c-0.58,3.37-2.36,5.7-5.17,6.87
	c-2.55,1.06-5.14,1.72-7.86,0.86c-1.8-0.57-3.29-1.69-4.23-3.55c-1.85-3.65-2.36-7.53-1.11-11.59c0.77-2.49,2.24-4.35,4.35-5.29
	c1.78-0.78,3.67-1.2,5.51-1.78C17.52,32.2,17.54,32.3,17.56,32.4z M15.93,47.3c0.97-0.25,1.96-0.41,2.89-0.79
	c0.46-0.19,0.94-0.68,1.19-1.19c0.55-1.11-0.57-4.68-1.55-5.25c-0.12-0.07-0.26-0.14-0.39-0.14c-3.67,0.02-5.35,1.1-4.4,5.48
	C14.03,47.01,14.38,47.25,15.93,47.3z"/>
<g>
	<path d="M77.72,58.61c-3.62,0.02-6.53-1.54-8.74-4.61c-1.78-2.47-3.09-5.19-3.62-8.31c-0.58-3.41,0.2-6.53,1.69-9.49
		c1.49-2.95,3.3-5.63,6.18-7.15c2.07-1.09,4.29-1.32,6.56-0.95c0.2,0.03,0.44,0.06,0.59,0.18c0.38,0.33,0.73,0.46,1.25,0.41
		c0.36-0.04,0.76,0.3,1.14,0.49c1.2,0.6,2.38,1.23,3.59,1.83c1.28,0.63,2.17,1.7,2.71,3.03c2.27,5.56,2.9,11.29,1.01,17.13
		c-1.34,4.14-4.17,6.37-8.12,6.98C80.54,58.36,79.12,58.45,77.72,58.61z M85.85,43.4c-0.06-0.02-0.13-0.03-0.18-0.05
		c-0.1-0.95-0.03-1.98-0.35-2.83c-1.03-2.68-2.53-4.94-5.18-6.08c-2.29-0.99-4.63-0.49-6.24,1.53c-0.52,0.65-1.03,1.32-1.45,2.04
		c-1.25,2.19-2.16,4.49-1.55,7.15c0.51,2.21,1.54,4.13,2.97,5.8c0.91,1.07,2.07,1.62,3.39,1.56c1.47-0.06,2.94-0.22,4.39-0.44
		c1.76-0.26,2.9-1.43,3.31-3.26C85.36,47.04,85.56,45.21,85.85,43.4z"/>
	<path d="M82.06,42.93c-0.06,2.4-1.91,4.54-3.89,4.49c-1.84-0.05-3.51-2.22-3.43-4.46c0.07-2.2,2.04-4.27,3.97-4.2
		C80.57,38.83,82.12,40.75,82.06,42.93z"/>
</g>
</svg>
