<?xml version="1.0" encoding="UTF-8" standalone="no"?>
<!-- Generator: Adobe Illustrator 24.1.3, SVG Export Plug-In . SVG Version: 6.00 Build 0)  -->

<svg
   version="1.1"
   id="Layer_1"
   x="0px"
   y="0px"
   viewBox="0 0 503.6308 64.264428"
   xml:space="preserve"
   width="503.63083"
   height="64.264427"
   xmlns="http://www.w3.org/2000/svg"
   xmlns:svg="http://www.w3.org/2000/svg"><defs
   id="defs11" />
<g
   id="g11"
   transform="translate(-49.41,-18.707723)">
	<path
   d="m 129.12,50.07 c 1.24,4.3 2.44,8.39 3.6,12.48 1.02,3.6 1.98,7.22 3.01,10.82 0.33,1.14 0.76,2.26 1.2,3.37 0.93,2.36 0.23,4.52 -1.79,5.37 -2.03,0.85 -4.17,-0.09 -5.08,-2.47 -0.96,-2.53 -1.75,-5.12 -2.49,-7.72 -2.01,-7.05 -3.97,-14.11 -5.93,-21.17 -0.17,-0.6 -0.36,-0.96 -1.11,-0.93 -2.87,0.09 -5.75,0.13 -8.63,0.13 -0.86,0 -1.25,0.36 -1.52,1.15 -2.52,7.43 -5.05,14.85 -7.61,22.27 -0.7,2.03 -1.44,4.05 -2.23,6.04 -0.56,1.4 -1.44,2.58 -2.87,3.24 -1.34,0.62 -2.86,0.33 -3.84,-0.74 -0.95,-1.04 -1.25,-2.59 -0.4,-3.75 1.36,-1.87 1.78,-4.06 2.44,-6.18 2.12,-6.81 4.22,-13.62 6.33,-20.43 0.06,-0.19 0.09,-0.38 0.18,-0.75 -1.27,0.12 -2.44,0.26 -3.61,0.34 -1.99,0.13 -3.99,0.31 -5.98,0.31 -2.32,0.01 -3.94,-1.51 -4.02,-3.58 -0.08,-2.07 1.41,-3.64 3.75,-3.86 4.13,-0.38 8.27,-0.75 12.41,-1.07 0.8,-0.06 1.13,-0.44 1.5,-1.09 2.3,-4.1 4.66,-8.17 7.03,-12.22 0.38,-0.64 0.91,-1.22 1.45,-1.74 2.43,-2.37 5.93,-2.03 7.67,0.88 0.87,1.45 1.45,3.1 1.98,4.72 0.89,2.77 1.66,5.57 2.42,8.38 0.19,0.68 0.49,0.99 1.21,1.03 1.35,0.08 2.7,0.31 4.06,0.37 0.73,0.03 1.5,-0.08 2.2,-0.29 1.61,-0.49 3.96,0.15 5.01,1.46 1.54,1.93 0.61,4.8 -1.97,5.33 -2.12,0.43 -4.36,0.33 -6.54,0.43 -0.5,0.02 -1.02,-0.07 -1.83,-0.13 z m -14.43,-7.83 c 1.64,0 3.07,0 4.62,0 -0.51,-1.75 -0.99,-3.44 -1.56,-5.4 -1.08,1.9 -2.02,3.56 -3.06,5.4 z"
   id="path1" />
	<path
   d="m 395.91,50.2 c 5.87,1.68 11.44,3.34 17.05,4.85 6.59,1.78 13.21,3.42 19.82,5.14 0.65,0.17 1.3,0.42 1.89,0.73 1.88,0.98 2.65,2.91 1.94,4.73 -0.71,1.8 -2.62,2.68 -4.65,2.14 -6.09,-1.62 -12.2,-3.19 -18.28,-4.86 -7.35,-2.02 -14.67,-4.12 -22.01,-6.19 -0.38,-0.11 -0.77,-0.2 -1.33,-0.34 0,0.52 -0.02,0.93 0,1.35 0.29,5.93 0.59,11.86 0.88,17.8 0.08,1.57 0.08,3.12 -0.82,4.5 -0.89,1.36 -2.4,1.95 -3.83,1.51 -1.46,-0.45 -2.37,-1.77 -2.35,-3.24 0.02,-1.66 0.05,-3.34 -0.07,-4.99 -0.43,-5.84 -0.92,-11.68 -1.42,-17.51 -0.03,-0.34 -0.27,-0.73 -0.53,-0.97 -1.9,-1.73 -1.98,-3.93 -0.27,-5.77 0.39,-0.41 0.69,-1.07 0.71,-1.63 0.24,-7.21 0.44,-14.42 0.63,-21.64 0.1,-3.69 2.32,-5.52 5.97,-4.9 11.12,1.88 14.64,10.89 13.83,18.9 -0.39,3.83 -2.68,6.84 -5.64,9.29 -0.39,0.3 -0.82,0.58 -1.52,1.1 z m -5.68,-5.69 c 3.66,-1.19 5.77,-4.35 5.45,-7.92 -0.34,-3.77 -2.4,-6.89 -4.9,-7.24 -0.18,5.01 -0.36,10.02 -0.55,15.16 z"
   id="path2" />
	<path
   d="m 173.99,43.5 c 0.74,0.31 1.4,0.64 2.11,0.87 6,1.96 11.81,4.32 17.46,7.17 2.91,1.47 6.26,2.09 9.41,3.09 0.53,0.17 1.09,0.25 1.61,0.44 1.91,0.71 2.89,2.52 2.39,4.38 -0.5,1.86 -2.25,3.05 -4.22,2.71 -5.03,-0.86 -9.88,-2.33 -14.38,-4.75 -3.49,-1.88 -7.14,-3.32 -10.85,-4.69 -4.86,-1.8 -9.59,-3.92 -14.38,-5.89 -0.25,-0.1 -0.51,-0.19 -0.92,-0.35 -0.23,3.19 -0.52,6.28 -0.68,9.37 -0.25,5.1 -0.39,10.2 -0.65,15.29 -0.06,1.17 -0.28,2.39 -0.72,3.47 -0.68,1.63 -2.4,2.29 -3.98,1.78 -1.58,-0.51 -2.4,-2.01 -2.19,-3.79 0.12,-1.02 0.12,-2.07 0.08,-3.1 -0.4,-8.98 0.14,-17.94 0.88,-26.88 0.46,-5.56 0.99,-11.11 1.56,-16.66 0.13,-1.21 0.47,-2.43 0.87,-3.59 0.91,-2.64 3,-4.07 5.76,-3.56 6.49,1.2 11.48,4.64 14.13,10.78 1.91,4.41 1.19,10.08 -3.01,13.52 -0.08,0.06 -0.13,0.17 -0.28,0.39 z M 163.84,26.73 c -0.36,3.76 -0.71,7.48 -1.08,11.2 -0.08,0.8 0.51,0.92 0.98,0.84 1.71,-0.29 3.44,-0.57 5.09,-1.09 1.3,-0.41 1.82,-1.57 1.86,-2.93 0.12,-3.29 -2.87,-6.9 -6.85,-8.02 z"
   id="path3" />
	<path
   d="m 490.71,37.85 c 3.9,-4.05 7.63,-7.93 11.36,-11.8 0.41,-0.43 0.77,-0.93 1.24,-1.28 1.06,-0.78 2.52,-0.77 3.61,-0.05 1.15,0.75 1.82,2.15 1.34,3.42 -0.42,1.13 -1.03,2.27 -1.82,3.18 -2.94,3.36 -5.98,6.65 -9.01,9.93 -0.56,0.61 -1.27,1.09 -2.01,1.7 0.59,0.68 0.97,1.12 1.37,1.55 5.08,5.55 9.67,11.46 13.49,17.96 1.09,1.86 0.87,3.71 -0.64,4.79 -1.56,1.11 -3.5,0.74 -4.82,-1.02 -1.29,-1.72 -2.38,-3.6 -3.76,-5.25 -3.21,-3.87 -6.53,-7.64 -9.81,-11.45 -0.12,-0.14 -0.29,-0.25 -0.31,-0.27 -2.41,2.82 -4.73,5.66 -7.2,8.36 -2.07,2.26 -4.48,4.24 -6.47,6.57 -1.93,2.26 -3.63,4.74 -5.24,7.24 -1.4,2.18 -3.05,3.12 -5,2.43 -1.8,-0.64 -2.87,-2.46 -2.31,-4.29 0.36,-1.16 0.95,-2.28 1.58,-3.33 2.76,-4.64 6.49,-8.48 10.41,-12.14 3.23,-3.01 6.03,-6.38 8.42,-10.08 0.19,-0.29 0.2,-0.94 0,-1.19 -3.21,-4.02 -6.38,-8.08 -9.75,-11.98 -1.47,-1.7 -3.28,-3.12 -5.03,-4.55 -1.43,-1.17 -2.02,-2.95 -1.29,-4.58 0.74,-1.63 2.49,-2.55 4.26,-2 1.08,0.33 2.14,0.91 3.03,1.6 3.7,2.92 6.5,6.68 9.37,10.36 1.55,1.97 3.16,3.9 4.99,6.17 z"
   id="path4" />
	<path
   d="m 534.8,63.81 c -4.91,0.03 -8.85,-1.92 -11.85,-5.75 -2.41,-3.08 -4.19,-6.47 -4.91,-10.37 -0.79,-4.26 0.27,-8.15 2.29,-11.84 2.02,-3.68 4.47,-7.03 8.38,-8.92 2.81,-1.36 5.81,-1.65 8.89,-1.19 0.27,0.04 0.6,0.07 0.8,0.23 0.51,0.41 0.99,0.58 1.69,0.51 0.49,-0.05 1.03,0.37 1.54,0.61 1.62,0.75 3.23,1.54 4.86,2.28 1.73,0.78 2.94,2.12 3.67,3.78 3.08,6.94 3.93,14.08 1.37,21.37 -1.81,5.16 -5.65,7.95 -11.01,8.71 -1.9,0.26 -3.82,0.38 -5.72,0.58 z m 11.02,-18.98 c -0.08,-0.02 -0.17,-0.04 -0.25,-0.06 -0.14,-1.18 -0.04,-2.47 -0.48,-3.53 -1.4,-3.34 -3.43,-6.16 -7.02,-7.59 -3.1,-1.23 -6.27,-0.61 -8.46,1.91 -0.7,0.81 -1.4,1.65 -1.97,2.55 -1.69,2.73 -2.93,5.6 -2.1,8.92 0.69,2.76 2.09,5.15 4.02,7.23 1.23,1.33 2.81,2.02 4.6,1.95 1.99,-0.08 3.98,-0.28 5.95,-0.55 2.39,-0.32 3.93,-1.79 4.49,-4.07 0.55,-2.22 0.83,-4.5 1.22,-6.76 z"
   id="path5" />
	<path
   d="m 49.41,50.27 c 0.53,-3.62 0.69,-7.33 1.65,-10.83 1.95,-7.08 6.9,-11.88 13.08,-15.52 3.64,-2.14 7.54,-2.79 11.65,-1.67 2.5,0.68 5.01,1.37 7.42,2.3 1.34,0.52 2.59,1.42 3.69,2.37 1.17,1.01 1.66,2.44 1.26,4.02 -0.62,2.46 -3.72,3.41 -5.37,1.51 -1.18,-1.36 -2.63,-1.87 -4.2,-2.28 -1.5,-0.39 -3.05,-0.63 -4.56,-0.97 -2.06,-0.46 -3.97,-0.04 -5.77,0.99 -5.14,2.93 -9.47,6.73 -10.37,12.85 -0.65,4.46 -0.94,9.12 -0.36,13.56 0.82,6.25 4.35,10.12 11.02,11.71 2.55,0.61 3.99,2.28 3.61,4.38 -0.37,2.01 -2.02,3.26 -4.2,3.06 -3.7,-0.35 -6.93,-1.96 -9.81,-4.15 -5.66,-4.3 -8.11,-10.28 -8.47,-17.22 -0.07,-1.35 -0.01,-2.71 -0.01,-4.07 -0.08,0 -0.17,-0.02 -0.26,-0.04 z"
   id="path6" />
	<path
   d="m 223.75,47.73 c 0,-6.1 0.01,-12.2 -0.01,-18.3 0,-0.87 -0.14,-1.75 -0.26,-2.61 -0.31,-2.26 0.68,-3.93 2.59,-4.32 1.89,-0.39 3.61,0.76 3.97,3.05 0.49,3.06 0.89,6.17 0.96,9.26 0.18,8.29 0.17,16.58 0.23,24.87 0.01,1.75 0.01,3.51 -0.03,5.26 -0.02,0.73 0.23,1.04 0.99,1.13 7.59,0.93 15.19,1.49 22.82,0.36 0.77,-0.11 1.6,0 2.38,0.13 2.11,0.35 3.34,1.63 3.39,3.42 0.05,1.71 -1.32,3.44 -3.23,3.79 -1.48,0.28 -3.01,0.3 -4.52,0.43 -5.75,0.47 -11.49,0.55 -17.22,-0.26 -2.33,-0.33 -4.7,-0.45 -7.01,-0.89 -3.39,-0.63 -4.86,-2.2 -4.95,-5.59 -0.14,-5.46 -0.04,-10.92 -0.04,-16.38 0,-1.12 0,-2.23 0,-3.35 0,0 -0.03,0 -0.06,0 z"
   id="path7" />
	<path
   d="m 314.59,50.81 c -0.4,-5.19 -0.35,-9.7 1.21,-14.01 0.85,-2.35 1.92,-4.64 3.11,-6.83 2.21,-4.05 5.86,-5.96 10.34,-6.4 1.71,-0.17 3.43,-0.24 5.14,-0.23 2.27,0.02 3.77,1.39 3.77,3.32 0,1.93 -1.49,3.18 -3.76,3.35 -1.9,0.14 -3.81,0.4 -5.69,0.73 -1.45,0.25 -2.5,1.15 -3.25,2.43 -2.58,4.46 -3.82,9.23 -3.58,14.4 0.14,2.98 0.23,5.98 0.14,8.96 -0.15,4.96 -2.32,9.01 -5.92,12.39 -3.2,3.01 -6.74,5.36 -11.12,6.24 -2.19,0.44 -3.96,-0.39 -4.61,-2.21 -0.67,-1.85 0.21,-3.73 2.22,-4.72 0.32,-0.16 0.65,-0.33 1,-0.4 3.28,-0.7 5.72,-2.71 8.01,-4.99 1.88,-1.87 2.86,-4.12 2.95,-6.73 0.1,-1.98 0.04,-3.98 0.04,-5.3 z"
   id="path8" />
	<path
   d="m 262.97,41.99 c 0.02,-4.24 2.23,-7.04 5.27,-9.36 4.3,-3.3 8.77,-3.4 13.43,-0.78 0.58,0.33 1.24,0.57 1.89,0.68 1.68,0.28 2.95,1.15 3.97,2.46 5.13,6.53 2.24,16.79 -5.53,19.71 -2.97,1.12 -6,1.69 -9.16,1.06 -5.07,-1.01 -8.84,-5.34 -9.58,-10.96 -0.13,-1 -0.21,-2 -0.29,-2.81 z m 12.65,6.49 c 3.65,-0.01 6.27,-1.58 7.06,-4.54 0.31,-1.16 0.15,-2.53 -0.15,-3.71 -0.09,-0.37 -1.36,-0.4 -2.04,-0.69 -1.25,-0.52 -2.47,-1.11 -3.69,-1.68 -1.19,-0.56 -2.29,-0.41 -3.39,0.29 -2.87,1.83 -3.4,3.16 -2.52,6.63 0.62,2.42 2.25,3.7 4.73,3.7 z"
   id="path9" />
	<path
   d="m 441.92,26.55 c 4.72,-0.02 9.74,3.39 10.08,9.07 0.1,1.69 0.08,3.45 -0.25,5.1 -0.67,3.37 -2.75,5.7 -6.02,6.87 -2.97,1.06 -5.99,1.72 -9.15,0.86 -2.1,-0.57 -3.83,-1.69 -4.93,-3.55 -2.16,-3.65 -2.75,-7.53 -1.29,-11.59 0.9,-2.49 2.61,-4.35 5.07,-5.29 2.07,-0.78 4.27,-1.2 6.42,-1.78 0.02,0.11 0.04,0.21 0.07,0.31 z m -1.9,14.9 c 1.13,-0.25 2.28,-0.41 3.37,-0.79 0.54,-0.19 1.1,-0.68 1.39,-1.19 0.64,-1.11 -0.66,-4.68 -1.81,-5.25 -0.14,-0.07 -0.3,-0.14 -0.45,-0.14 -4.28,0.02 -6.23,1.1 -5.12,5.48 0.4,1.6 0.81,1.84 2.62,1.89 z"
   id="path10" />
	<path
   d="m 540.68,44.25 c -0.08,2.99 -2.59,5.66 -5.27,5.6 -2.49,-0.06 -4.76,-2.77 -4.65,-5.57 0.1,-2.74 2.76,-5.33 5.38,-5.24 2.52,0.09 4.62,2.49 4.54,5.21 z"
   id="path11" />
</g>
</svg>
