<?xml version="1.0" encoding="utf-8"?>
<!-- Generator: Adobe Illustrator 24.1.3, SVG Export Plug-In . SVG Version: 6.00 Build 0)  -->
<svg version="1.1" id="Layer_1" xmlns="http://www.w3.org/2000/svg" xmlns:xlink="http://www.w3.org/1999/xlink" x="0px" y="0px"
	 viewBox="0 0 595.28 102.1" style="enable-background:new 0 0 595.28 102.1;" xml:space="preserve">
<g>
	<path d="M435.77,21.82c4.15-0.11,7.32,1.65,9.97,4.23c2.57,2.49,4.99,5.17,7.2,7.98c1.2,1.53,1.92,3.46,2.69,5.28
		c0.69,1.65,1.15,3.39,1.72,5.09c0.66,1.93,1.93,3.29,3.63,4.44c1.83,1.25,3.6,2.65,5.17,4.21c5.19,5.15,3.77,11.41,0.11,15.36
		c-3.39,3.65-6.33,7.55-9.09,11.67c-2.7,4.03-7.4,5.6-12.14,4.4c-0.31-0.08-0.63-0.14-0.92-0.26c-3.05-1.24-6.11-1.08-9.29-0.45
		c-2.2,0.43-4.54,0.7-6.75,0.46c-4.27-0.46-7.55-2.88-9.25-6.75c-1.79-4.07-4.82-6.76-8.39-9.06c-2.47-1.59-4.13-3.72-4.73-6.62
		c-0.49-2.38,0.07-4.61,1.2-6.68c0.66-1.22,1.37-2.51,2.37-3.43c3.96-3.64,5.55-8.41,6.88-13.38c0.68-2.53,1.57-5.01,2.5-7.47
		c1.1-2.91,3.34-4.57,6.32-5.33c0.61-0.15,1.28-0.33,1.75-0.71C429.43,22.57,432.68,22.09,435.77,21.82z M446.31,71.03
		c4.43,0,8.32-3.59,8.37-7.72c0.05-4.3-3.91-8.04-8.48-8.01c-3.99,0.02-8.01,4.14-8.02,8.21C438.17,67.43,442.05,71.03,446.31,71.03
		z"/>
	<path d="M492.1,63.04c-5,1.29-8.91,3.82-10.26,9.23c-0.97,3.91-2.99,7.19-5.95,9.9c-1.08,0.99-2.31,1.44-3.74,0.91
		c-1.99-0.73-2.7-3.16-1.44-4.97c0.41-0.59,0.94-1.09,1.41-1.63c1.51-1.77,2.46-3.81,2.87-6.1c1.19-6.66,5.67-10.54,11.35-13.42
		c0.13-0.07,0.27-0.13,0.56-0.26c-4.37-2.52-6.63-6.64-8.83-10.74c-1.37-2.55-2.29-5.34-3.44-8.01c-0.43-1-1.01-2.32-2.16-2.01
		c-0.78,0.21-1.51,1.47-1.78,2.41c-0.26,0.91,0.04,2.01,0.19,3.01c0.07,0.46,0.4,0.87,0.56,1.31c0.72,1.97-0.02,3.95-1.77,4.78
		c-1.78,0.85-3.79,0.24-4.87-1.56c-2.43-4.04-2.48-8.14-0.25-12.28c0.17-0.32,0.36-0.62,0.56-0.92c3.78-5.89,11.34-5.95,15.09,0
		c1.35,2.14,2.35,4.53,3.23,6.91c1.13,3.03,2.76,5.75,4.67,8.31c0.61,0.81,1.44,1.49,2.25,2.11c1.64,1.26,3.33,2.46,5.03,3.63
		c0.27,0.18,0.73,0.26,1.04,0.17c1.48-0.44,2.4-1.53,3.05-2.86c1.29-2.65,2.53-5.33,3.83-7.97c0.55-1.11,1.23-2.14,1.84-3.22
		c2.2-3.88,5.65-6.17,9.68-7.82c1.43-0.58,2.75-1.44,4.09-2.22c1.53-0.89,2.65-2.1,3.17-3.87c0.39-1.31,1.28-2.31,2.67-2.69
		c2.75-0.75,5.22,1.57,4.54,4.4c-0.6,2.52-1.65,4.92-3.81,6.48c-2.32,1.68-4.66,3.51-7.28,4.51c-4,1.54-6.58,4.2-8.32,7.92
		c-1.18,2.53-2.36,5.06-3.59,7.56c-1.36,2.75-3.26,5-6.12,6.33c-0.27,0.13-0.58,0.6-0.54,0.87c0.45,2.95,1.11,5.85,3.45,7.95
		c0.85,0.77,1.95,1.55,3.03,1.72c2.79,0.44,5.62,0.68,8.44,0.74c3.77,0.08,7.37,0.8,10.84,2.26c0.85,0.36,1.68,0.74,2.5,1.16
		c3.48,1.79,6.95,0.94,10.36-0.12c4.73-1.46,9.38-1.23,14.03,0.23c3.85,1.21,7.79,1.45,11.73,0.83c2.95-0.46,5.69-1.51,7.61-4.07
		c0.48-0.64,1.23-1.15,1.96-1.51c1.43-0.7,3.06-0.25,3.98,0.96c0.94,1.23,0.85,2.79-0.11,4.1c-4.02,5.46-9.64,7.7-16.21,8.17
		c-3.61,0.26-7.11-0.12-10.53-1.2c-3.78-1.2-7.51-1.34-11.3-0.12c-1.1,0.35-2.25,0.54-3.37,0.84c-4.51,1.25-8.63-0.1-12.62-1.96
		c-2.84-1.33-5.78-1.97-8.9-2.09c-3.02-0.12-6.07-0.22-9.05-0.7c-6.89-1.1-10.37-5.88-12.39-12.04c-0.32-0.98-0.47-2.01-0.71-3.02
		C492.34,63.3,492.26,63.24,492.1,63.04z"/>
	<path d="M106.17,68.5c-2.62,1.38-4.87,3.12-5.45,5.96c-1.47,7.16-7.42,10.97-14.71,9.87c-2.2-0.33-4.29-0.06-6.36,0.67
		c-1.93,0.68-3.89,0.99-5.98,0.91c-6.07-0.24-10.19-6.21-7.36-12.81c2.12-4.95,6.19-6.66,11.06-7.34c1.27-0.17,2.53-0.37,3.79-0.54
		c2.57-0.34,4.67-1.62,6.05-3.7c2.32-3.5,5.78-5.54,9.14-7.75c1.53-1.01,3.37-1.66,4.66-2.89c1.61-1.54,3.06-3.38,4.1-5.34
		c1.43-2.7,2.46-5.61,3.57-8.47c0.67-1.71,0.81-3.48-0.05-5.22c-1.2-2.44-4.02-3.56-6.43-2.28c-1.49,0.79-2.84,1.89-4.13,2.99
		c-2.52,2.15-4.15,4.95-5.83,7.79c-2.85,4.8-7.11,8-12.5,9.65c-1.29,0.4-2.52,0.98-3.78,1.48c-2.45,0.98-3.4,2.97-3.69,5.42
		c-0.09,0.79-0.13,1.59-0.27,2.38c-0.34,1.9-1.88,3.15-3.6,2.98c-1.78-0.18-3.09-1.61-2.99-3.57c0.11-1.94,0.28-3.91,0.74-5.79
		c1.24-5.01,5.09-7.49,9.52-9.33c0.77-0.32,1.58-0.57,2.37-0.85c3.95-1.41,6.78-4.05,8.71-7.75c2.52-4.85,6.2-8.68,10.89-11.46
		c4.76-2.82,9.73-2.75,14.07,0.55c4.39,3.34,5.96,8.18,4.52,13.57c-0.85,3.17-2.19,6.23-3.5,9.26c-1.16,2.65-1.49,5.11-0.31,7.92
		c2.26,5.4,2.28,11.01,0.82,16.66c-0.25,0.95-0.4,1.97-0.38,2.95c0.04,3.1,2.2,4.95,5.31,4.64c0.59-0.06,1.18-0.21,1.77-0.3
		c1.96-0.31,3.73,0.81,4.25,2.67c0.5,1.8-0.36,3.77-2.23,4.34c-1.58,0.48-3.32,0.89-4.92,0.71c-3.73-0.41-7.39-1.32-9.59-4.82
		c-1.49-2.38-2.21-5.05-2.08-7.86c0.07-1.42,0.39-2.84,0.6-4.25C106.04,69.19,106.11,68.85,106.17,68.5z M105.61,56.97
		c-2.48,1.45-4.65,2.56-6.64,3.94c-2.27,1.58-4.45,3.23-6.18,5.54c-2.44,3.28-5.82,5.4-9.99,6.02c-1.89,0.28-3.79,0.56-5.67,0.91
		c-0.81,0.15-1.62,0.43-2.38,0.76c-1.09,0.48-2.14,2.75-1.76,3.64c0.28,0.65,1.72,1,3.08,0.49c3.86-1.44,7.78-1.88,11.88-1.32
		c2.93,0.4,4.79-1.05,5.41-3.97c1.02-4.75,4.12-8.01,8.02-10.55c1.63-1.06,2.82-2.43,3.91-3.95
		C105.52,58.18,105.47,57.68,105.61,56.97z"/>
	<path d="M393.12,60.02c-5.57,0.03-8.85-1.49-12.1-3.17c-0.87-0.45-1.85-0.72-2.8-0.95c-1.41-0.34-2.62,0.07-3.77,1
		c-0.98,0.8-2.13,1.41-3.24,2.03c-0.66,0.37-1.02,0.92-0.72,1.55c0.19,0.4,0.79,0.72,1.26,0.83c0.56,0.13,1.19,0.02,1.79-0.02
		c5.03-0.39,8.76,1.71,10.69,6.34c0.8,1.93,2.04,2.61,4,2.69c2.22,0.09,4.46,0.29,6.65,0.69c2.65,0.48,4.77,1.98,6.47,4.05
		c2.4,2.93,5.46,3.98,9.16,3.24c0.43-0.09,0.87-0.15,1.31-0.16c2.03-0.06,3.59,1.2,3.92,3.13c0.3,1.74-0.77,3.53-2.63,4.03
		c-1.49,0.4-3.07,0.75-4.6,0.72c-4.83-0.11-9.13-1.71-12.27-5.5c-1.56-1.88-3.41-2.59-5.72-2.69c-1.95-0.09-3.91-0.23-5.83-0.56
		c-3.01-0.5-5.14-2.25-6.46-4.99c-0.19-0.39-0.37-0.79-0.55-1.19c-0.96-2.14-1.41-2.44-3.76-2.3c-2.09,0.12-4.14,0.05-6.1-0.87
		c-2.98-1.39-4.67-3.68-4.92-6.95c-0.26-3.34,0.72-6.13,3.74-7.98c1.66-1.02,3.27-2.14,4.93-3.18c3.59-2.24,7.34-1.81,11.06-0.44
		c1.94,0.72,3.75,1.76,5.66,2.58c1.54,0.66,3.16,0.77,4.82,0.42c1.12-0.24,1.96-0.83,2.23-1.92c0.34-1.42,0.71-2.89,0.71-4.34
		c0.02-3.03,0.76-5.81,2.11-8.5c1.35-2.68,0.08-5.07-2.95-5.34c-1.44-0.13-2.98,0.01-4.37,0.38c-5.29,1.42-10.61,1.98-15.99,0.75
		c-1.53-0.35-3-1.06-4.45-1.72c-2.2-1-4.36-1.91-6.9-1.46c-2.2,0.39-3.42,1.43-3.56,3.66c-0.06,1.05,0.06,2.18,0.41,3.16
		c1.87,5.3,1.79,10.57-0.1,15.82c-1.67,4.65-1.05,9.06,1.31,13.24c3.26,5.76,3.55,11.54,0.56,17.46c-0.27,0.53-0.58,1.06-0.97,1.5
		c-1.17,1.33-2.94,1.58-4.33,0.67c-1.34-0.88-1.77-2.53-1.16-4.14c0.52-1.37,1.03-2.76,1.38-4.18c0.65-2.67-0.3-5.06-1.69-7.25
		c-1.77-2.78-2.71-5.84-3.3-9.03c-0.6-3.26-0.13-6.42,0.79-9.56c0.41-1.37,0.8-2.75,1.11-4.15c0.62-2.82,0.13-5.54-0.78-8.22
		c-0.91-2.66-1.14-5.36-0.33-8.11c1.54-5.21,5.17-7.96,11.08-8.43c3.31-0.26,6.37,0.61,9.22,2.12c4.13,2.19,8.44,2.09,12.83,1.3
		c2.39-0.43,4.75-1.13,7.16-1.36c5.45-0.52,10.6,2.53,12.53,7.21c0.97,2.35,1.26,4.83,0.04,7.07c-1.67,3.08-2.16,6.33-2.36,9.75
		c-0.09,1.6-0.55,3.24-1.16,4.73C400.37,57.86,396.65,60.02,393.12,60.02z"/>
	<path d="M178.82,83.66c-4.57-0.02-7.78-1.52-9.61-5.47c-1.12-2.41-3.01-3.92-5.74-4.38c-3.27-0.56-5.88-2.43-8.21-4.66
		c-0.81-0.77-1.68-1.19-2.74-1.26c-2.39-0.16-4.8-0.16-7.17-0.47c-7.63-0.99-11.02-8.69-6.63-15.01c2.06-2.97,5.15-3.71,8.5-3.1
		c3.16,0.58,6.25,1.05,9.5,0.7c3.37-0.36,6.54,0.62,9.48,2.39c0.97,0.58,2.32,1.12,3.33,0.92c2.26-0.46,4.05-1.83,4.75-4.21
		c0.44-1.49,0.86-2.99,1.24-4.49c0.48-1.86-0.12-3.47-1.78-4.4c-1.66-0.93-3.44-1.66-5.13-2.56c-2.1-1.12-4.42-2.03-6.16-3.57
		c-2.64-2.33-5.39-2.7-8.55-1.77c-1.57,0.46-3.15,0.91-4.72,1.36c-3.39,0.98-6.75,1.01-10.15-0.02c-2.74-0.82-4.7,0.07-6.21,2.46
		c-1.93,3.04-2.05,6.24-0.54,9.35c2.15,4.42,1.83,8.78,0.35,13.24c-1.07,3.22-0.43,5.17,2.46,7.01c5.33,3.4,5.79,9.95,2.83,14.66
		c-1.43,2.28-3.74,3.48-6.3,4.03c-2.72,0.58-5.07-1.79-4.38-4.25c0.39-1.38,1.36-2.09,2.72-2.38c1.77-0.38,2.35-0.94,2.56-2.38
		c0.26-1.8-0.15-2.68-1.68-3.59c-5.23-3.09-7.42-8.98-5.53-14.74c0.33-1.02,0.57-2.07,0.82-3.11c0.39-1.64,0.27-3.22-0.44-4.78
		c-1.65-3.64-2.5-7.47-1.53-11.41c1.21-4.87,3.63-8.9,8.54-11c2.55-1.09,5.15-1.28,7.73-0.44c2.77,0.9,5.41,0.65,8.11-0.18
		c1.94-0.6,3.91-1.14,5.91-1.53c4.42-0.86,8.42,0.06,11.83,3.09c1.76,1.57,3.81,2.54,5.99,3.41c2.06,0.83,4.06,1.89,5.93,3.1
		c4.07,2.63,5.86,7.56,4.61,12.25c-0.46,1.73-1.05,3.43-1.43,5.18c-0.92,4.23-7.4,9.61-12.58,9.33c-2.23-0.12-4.26-0.8-6.09-1.96
		c-2.18-1.38-4.49-1.83-6.98-1.44c-3.12,0.49-6.12-0.17-9.13-0.82c-1.72-0.37-2.23,0.04-2.1,1.79c0.03,0.39,0.36,0.97,0.69,1.08
		c0.85,0.28,1.77,0.41,2.68,0.5c2.26,0.22,4.54,0.31,6.8,0.58c2.04,0.24,3.82,1.11,5.27,2.6c1.77,1.82,3.83,2.98,6.37,3.54
		c4.43,0.97,7.46,3.86,9.48,7.79c0.62,1.21,1.44,1.6,2.65,1.54c0.96-0.05,1.91-0.16,2.87-0.17c2.16-0.02,3.8,1.38,3.99,3.35
		c0.19,1.97-1.16,3.65-3.31,4.01C180.79,83.55,179.59,83.59,178.82,83.66z"/>
	<path d="M326.12,62.6c-3.33,0.3-6.28,0.55-9.22,0.85c-2.69,0.28-5.36,0.29-7.92-0.71c-3.57-1.41-6.3-4.04-8.01-7.26
		c-1.66-3.12-4.17-4.66-7.11-5.97c-1.13-0.5-2.22-1.1-3.32-1.65c-5.77-2.88-6.52-8.44-5.28-12.86c1.93-6.9,8.82-10.79,16.22-9.16
		c2.39,0.52,4.75,1.23,6.71,2.75c3.3,2.54,6.67,2.04,10.15,0.49c2.03-0.9,4.06-2.03,6.21-2.4c3.39-0.58,6.87-0.48,10.07,1.16
		c4.63,2.37,6.58,7.02,5.34,12.09c-1.37,5.63-7.77,9.7-11.95,10.11c-0.47,0.05-0.96,0.03-1.43-0.05c-1.72-0.3-2.85-1.57-2.89-3.17
		c-0.03-1.61,1.04-3.01,2.75-3.28c2.23-0.35,3.91-1.51,5.37-3.12c1.19-1.31,1.43-2.88,0.87-4.46c-0.52-1.46-1.91-1.72-3.31-1.93
		c-2.52-0.39-4.78,0.11-7.01,1.33c-3.5,1.91-7.26,2.89-11.3,2.41c-2.16-0.25-4.08-1.12-5.85-2.3c-1.82-1.21-3.73-2.14-5.92-2.43
		c-3.88-0.53-6.93,1.8-7.02,5.34c-0.03,1.3,0.43,2.23,1.61,2.82c2.29,1.14,4.56,2.3,6.85,3.43c2.75,1.36,4.6,3.51,6.14,6.16
		c1.02,1.78,2.55,3.43,4.23,4.6c1.06,0.74,2.82,0.72,4.25,0.67c2.67-0.1,5.33-0.49,8-0.71c3.45-0.28,6.87-0.11,10.23,0.78
		c3.76,0.99,5.99,3.46,6.64,7.21c0.63,3.67-0.35,6.88-3.46,9.22c-0.57,0.43-1.12,0.96-1.76,1.24c-2.89,1.26-4.66,3.65-6.41,6.1
		c-2.46,3.44-5.79,5.57-9.97,6.25c-2.95,0.48-5.72-0.3-8.33-1.62c-2.78-1.4-5.62-2.36-8.76-1.56c-1.08,0.27-2.11,0.71-3.15,1.13
		c-2.39,0.96-4.83,1.75-7.45,1.39c-6.73-0.92-10.49-7.66-7.85-13.91c0.72-1.72,1.26-3.51,1.88-5.27c0.3-0.85,0.18-1.57-0.38-2.34
		c-1.16-1.6-0.91-3.62,0.49-4.88c1.4-1.26,3.38-1.29,4.93-0.02c2.45,2.02,3.12,4.73,2.48,7.67c-0.53,2.43-1.41,4.8-2.28,7.14
		c-0.43,1.16-0.7,2.25,0.06,3.29c0.77,1.04,1.93,1.05,3.06,0.75c0.96-0.26,1.92-0.57,2.82-0.98c5.28-2.37,10.53-2.3,15.76,0.12
		c0.69,0.32,1.37,0.65,2.06,0.97c2.96,1.39,6,0.69,8.07-1.86c0.38-0.47,0.75-0.93,1.09-1.43c1.99-2.95,4.33-5.49,7.61-7.1
		c0.97-0.47,2.17-0.99,2.15-2.46c-0.01-0.99-0.32-1.74-1.41-1.89C329.56,63.04,327.66,62.8,326.12,62.6z"/>
	<path d="M228.67,32.19c2.61-3.23,6.14-4.57,9.81-5.67c-0.05-1.15-0.15-2.22-0.14-3.28c0.02-2.17,1.44-3.69,3.4-3.72
		c1.96-0.02,3.41,1.46,3.51,3.63c0.03,0.71,0.01,1.43,0.01,2.05c2.79,0.57,5.46,1.12,8.27,1.7c0.25-0.94,0.54-2.04,0.85-3.14
		c0.17-0.57,0.33-1.16,0.61-1.68c0.84-1.6,2.63-2.29,4.28-1.7c1.62,0.58,2.61,2.3,2.19,4.04c-0.4,1.66-0.89,3.31-1.4,4.94
		c-0.37,1.2-0.22,2.07,0.96,2.8c1.99,1.24,3.88,2.63,5.94,4.06c0.23-0.55,0.35-0.82,0.45-1.1c1.19-3.42,2.35-6.85,3.59-10.26
		c0.66-1.81,2.21-2.78,3.87-2.57c1.71,0.22,3.08,1.51,3.16,3.23c0.04,0.84-0.19,1.75-0.49,2.55c-1.14,3.01-2.39,5.99-3.55,8.99
		c-0.72,1.84-0.61,1.77,0.75,3.12c3.71,3.68,5.28,8.1,4.21,13.28c-0.98,4.74-3.9,8.11-7.86,10.7c-5.88,3.84-12.25,4.48-18.96,2.82
		c-2.05-0.51-4.09-1.08-6.17-1.48c-3.64-0.71-7.14,0.02-10.57,1.26c-3.52,1.28-7.13,1.69-10.84,0.91c-2.12-0.45-3.99-1.37-5.56-2.87
		c-2.19-2.09-4.46-4.12-6.56-6.31c-3.76-3.91-5.06-8.61-3.81-13.88c0.36-1.5,1.31-2.86,2.06-4.41c-0.89-1.22-2.03-2.6-2.97-4.11
		c-1.47-2.36-0.17-5.14,2.47-5.42c1.56-0.16,2.66,0.62,3.51,1.86c0.75,1.08,1.48,2.18,2.29,3.21c0.21,0.27,0.74,0.5,1.07,0.43
		c1.72-0.35,3.41-0.79,5.28-1.24c-0.95-2.3-1.88-4.65-2.89-6.96c-0.7-1.6-0.59-3.08,0.48-4.23c0.98-1.06,2.54-1.49,3.83-0.84
		c0.75,0.37,1.47,1,1.93,1.69c0.54,0.81,0.82,1.8,1.16,2.73c0.5,1.34,0.95,2.7,1.42,4.05C228.34,31.56,228.45,31.73,228.67,32.19z
		 M258.45,60.66c0.02-0.11,0.04-0.22,0.06-0.33c4.17,0.09,7.68-1.39,10.75-4.2c3.53-3.23,3.55-9.58-1.72-11.72
		c-4.38-1.78-8.49-4.05-12.12-7.12c-1.3-1.1-2.73-2.09-4.22-2.91c-4.39-2.42-8.93-1.88-13.46-0.42c-0.36,0.12-0.69,0.39-0.97,0.65
		c-0.67,0.63-1.28,1.32-1.94,1.95c-3.51,3.3-7.43,5.74-12.42,6.09c-1.17,0.08-2.38,0.4-3.46,0.87c-1.48,0.64-2.86,1.64-3.15,3.34
		c-0.43,2.49,0.23,4.75,2.08,6.56c2,1.95,3.98,3.92,6.09,5.75c0.73,0.64,1.77,1.1,2.74,1.27c2.45,0.42,4.84-0.12,7.15-0.99
		c5.29-1.99,10.66-2.15,16.12-0.76C252.78,59.4,255.62,60.01,258.45,60.66z"/>
	<path d="M48.39,38.76c-0.34-2.51-0.5-5.07-1.08-7.53c-0.64-2.73-4.43-4.05-6.79-2.53c-0.41,0.26-0.77,0.72-0.96,1.16
		c-2.14,4.84-5.91,7.57-11.03,8.61c-1.37,0.28-2.75,0.54-4.09,0.92c-4.11,1.18-5.54,4.3-3.88,8.25c0.55,1.31,1.03,2.67,1.37,4.05
		c0.53,2.17,0.16,4.29-0.84,6.27c-1.1,2.19-1.65,4.47-1.41,6.93c0.1,1,0.52,1.72,1.41,2.2c1.02,0.55,2.02,1.12,3.02,1.71
		c2.28,1.34,4.14,3.1,5.49,5.4c0.42,0.72,0.89,1.43,1.45,2.04c1.41,1.54,2.8,1.82,4.74,1.04c2.64-1.06,5.38-1.49,8.21-1.33
		c0.88,0.05,1.76,0.11,2.64,0.13c3.45,0.06,5.09-2.73,3.54-5.82c-0.87-1.73-1.57-3.55-2.15-5.39c-0.25-0.79-0.08-1.75,0.07-2.6
		c0.34-1.94,1.97-3.24,3.79-3.15c1.92,0.09,3.5,1.54,3.51,3.56c0.01,1.49,0.53,2.69,1.24,3.9c3.7,6.28,1.09,11.7-3.61,15.48
		c-1.99,1.6-4.48,1.68-6.88,1.49c-3.12-0.25-6.05,0.02-9.02,1.19c-4.16,1.65-9.47-0.45-12.54-4.55c-0.1-0.13-0.2-0.25-0.27-0.4
		c-1.42-2.9-3.82-4.7-6.66-6.1c-3.55-1.75-5.25-4.78-5.51-8.64c-0.22-3.24,0.25-6.39,1.76-9.29c0.84-1.61,0.83-3.09,0.06-4.67
		c-1.44-2.95-2.02-6.04-1.31-9.29c1.08-4.97,4.51-7.74,9.03-9.36c1.9-0.68,3.95-0.94,5.93-1.43c2.2-0.54,3.92-1.73,4.92-3.82
		c3.04-6.41,9.51-8.4,15.85-5.2c5.08,2.56,6.67,6.91,7.07,12.03c0.14,1.82-0.01,3.67-0.12,5.49c-0.14,2.24-0.31,4.5,0.7,6.58
		c0.53,1.08,1.27,2.11,2.12,2.97c1.43,1.45,1.79,3.15,0.74,4.6c-1.06,1.47-3.03,1.87-4.7,0.74c-3.53-2.39-5.25-5.93-5.87-10.02
		c-0.28-1.84-0.27-3.73-0.39-5.6C48.11,38.79,48.25,38.77,48.39,38.76z"/>
	<path d="M190.38,72.63c0.09-3.93,0.96-7.39,2.86-10.61c0.87-1.47,1.56-3.05,2.24-4.61c0.61-1.41,0.57-2.85,0.03-4.31
		c-0.5-1.34-0.83-2.75-1.35-4.08c-1.53-3.93-1.15-7.74,0.61-11.48c0.61-1.3,1.2-2.61,1.94-3.84c1.03-1.71,1.08-3.46,0.47-5.28
		c-0.42-1.24-0.94-2.46-1.36-3.7c-0.69-2.02,0.03-3.79,1.78-4.48c1.7-0.66,3.47,0.09,4.32,1.96c1.12,2.46,2.35,4.87,2.63,7.65
		c0.25,2.51-0.29,4.81-1.37,7.05c-0.73,1.5-1.36,3.06-1.99,4.61c-0.66,1.62-0.62,3.24-0.01,4.9c0.6,1.64,1.05,3.34,1.64,4.99
		c1.39,3.88,0.31,7.47-1.24,10.99c-0.5,1.13-1.13,2.2-1.78,3.25c-1.59,2.55-2.06,5.32-1.79,8.26c0.18,1.98,0.74,2.21,2.56,1.45
		c1.82-0.77,3.71-1.46,5.63-1.94c2.7-0.67,5.39-0.31,8.03,0.53c1.56,0.5,3.13,0.97,4.72,1.35c2.72,0.65,5.42,0.31,8.04-0.51
		c5.62-1.75,10.98-1.04,16.15,1.54c2.54,1.26,5.05,1.18,7.67,0.33c4.49-1.46,9.08-2.21,13.81-1.6c2.39,0.31,4.65,1,6.84,2.05
		c1.44,0.69,3.1,0.97,4.7,1.24c3.01,0.53,4.45,3.61,2.69,5.92c-0.84,1.1-2.02,1.53-3.37,1.52c-2.36-0.02-4.65-0.54-6.69-1.66
		c-3.97-2.19-8.13-2.08-12.35-1.24c-2.46,0.49-4.86,1.29-7.32,1.76c-2.87,0.55-5.64-0.06-8.3-1.18c-1.03-0.43-2.08-0.83-3.09-1.28
		c-2.36-1.06-4.78-1.13-7.27-0.55c-2.06,0.48-4.12,1.01-6.21,1.3c-3.81,0.53-7.5-0.21-11.06-1.52c-3.33-1.23-6.4-0.96-9.56,0.66
		c-4.53,2.32-8.9,1.3-11.48-2.47C190.65,77.44,190.48,74.92,190.38,72.63z"/>
	<path d="M562.56,69.04c-2.12-0.25-3.8-0.35-5.44-0.65c-3.95-0.72-7.78-0.52-11.72,0.44c-4.69,1.14-9.34,0.38-13.74-1.76
		c-3.09-1.5-6.27-2.77-9.81-2.71c-1.03,0.02-2.08-0.11-3.09-0.31c-3.17-0.62-5.26-3.14-5.26-6.35c0-3.97,1.19-7.47,4.4-10.03
		c2.33-1.86,4.66-3.72,7.1-5.44c0.92-0.65,2.1-0.97,3.2-1.3c2.86-0.86,5.1-2.58,7.05-4.76c1.12-1.25,2.17-2.56,3.33-3.76
		c6.04-6.2,15.25-6.14,21.18,0.2c1.46,1.57,2.72,3.34,3.98,5.08c1.8,2.48,3.78,4.69,6.66,6.02c1.32,0.61,2.58,1.47,3.69,2.42
		c2.58,2.19,3.63,5.05,3.29,8.43c-0.68,6.64-4.67,10.83-10.35,13.61C565.59,68.86,563.79,68.81,562.56,69.04z M562.41,61.52
		c0.61-0.15,1.69-0.17,2.47-0.66c1.24-0.77,2.52-1.68,3.35-2.84c1.99-2.76,3.08-5.9-1.25-7.74c-0.33-0.14-0.61-0.38-0.94-0.52
		c-2.3-0.98-4.16-2.55-5.72-4.45c-1.85-2.25-3.56-4.61-5.36-6.89c-2.73-3.46-7.89-4.67-11.44-0.39c-1.1,1.32-2.21,2.63-3.39,3.87
		c-2.72,2.84-5.89,5-9.7,6.14c-2.81,0.84-5.08,2.52-6.88,4.77c-1.44,1.8-0.46,3.68,1.77,4.27c3.03,0.8,6.11,1.65,8.93,2.98
		c3.83,1.81,7.63,2.21,11.62,1.04c2.38-0.7,4.77-0.96,7.23-0.69C556.07,60.74,559.04,61.12,562.41,61.52z"/>
	<path d="M558.45,18.84c0.3,0.07,0.92,0.11,1.45,0.35c3.86,1.73,7.6,3.69,9.62,7.68c1.36,2.68,3.63,4.13,6.27,5.23
		c2.99,1.24,5.24,3.32,6.77,6.16c0.76,1.4,0.86,2.82-0.05,4.19c-1.35,2.03-4.47,2.28-5.82,0.17c-1.59-2.5-3.9-3.76-6.41-4.92
		c-2.54-1.17-4.63-2.95-5.84-5.46c-1.67-3.47-4.26-5.76-7.81-7.15c-1.55-0.61-2.23-2.17-1.86-3.73
		C555.13,19.85,556.48,18.84,558.45,18.84z"/>
	<path d="M458.73,29.36c-2.01-0.04-3.28-0.61-4.08-1.97c-1.13-1.92-2.59-3.33-4.81-4.05c-2.1-0.68-2.98-2.8-2.26-4.73
		c0.69-1.85,2.66-2.76,4.74-2.15c2.4,0.7,4.48,1.96,6.02,3.93c0.65,0.83,1.18,0.85,2.1,0.52c1.3-0.47,2.68-0.78,4.06-0.97
		c2.03-0.28,3.68,0.97,3.94,2.8c0.25,1.8-0.96,3.18-2.91,3.77c-1.65,0.5-3.2,1.32-4.8,2C459.93,28.86,459.14,29.19,458.73,29.36z"/>
	<path d="M543.82,15.8c1.84-0.01,3.22,0.91,3.64,2.54c0.41,1.57-0.35,3.29-2.05,3.82c-1.68,0.53-3.48,0.83-5.25,0.92
		c-1.64,0.09-2.92-1.28-3.13-2.89c-0.2-1.52,0.67-3.08,2.23-3.53C540.74,16.24,542.29,16.08,543.82,15.8z"/>
	<path d="M446.5,66.72c-2.09-0.06-3.74-1.62-3.68-3.49c0.06-1.83,1.64-3.27,3.5-3.2c2.12,0.08,3.71,1.6,3.67,3.51
		C449.95,65.39,448.42,66.78,446.5,66.72z"/>
	<path d="M243.89,39.85c2.49,0.04,4.26,1.75,4.24,4.08c-0.03,2.59-2.39,5.04-4.83,5.02c-2.51-0.02-4.3-1.91-4.25-4.49
		C239.09,41.93,241.32,39.81,243.89,39.85z"/>
	<path d="M552.82,49.66c0,2.45-1.96,4.52-4.3,4.54c-2.31,0.02-4.48-2.19-4.48-4.56c0-2.48,2.12-4.63,4.55-4.61
		C550.85,45.04,552.82,47.2,552.82,49.66z"/>
</g>
</svg>
