<?xml version="1.0" encoding="UTF-8" standalone="no"?>
<!-- Generator: Adobe Illustrator 24.1.3, SVG Export Plug-In . SVG Version: 6.00 Build 0)  -->

<svg
   version="1.1"
   id="Layer_1"
   x="0px"
   y="0px"
   viewBox="0 0 571.06266 70.723329"
   xml:space="preserve"
   width="571.06268"
   height="70.723328"
   xmlns="http://www.w3.org/2000/svg"
   xmlns:svg="http://www.w3.org/2000/svg"><defs
   id="defs16" />
<g
   id="g16"
   transform="translate(-12.09873,-15.799919)">
	<path
   d="m 435.77,21.82 c 4.15,-0.11 7.32,1.65 9.97,4.23 2.57,2.49 4.99,5.17 7.2,7.98 1.2,1.53 1.92,3.46 2.69,5.28 0.69,1.65 1.15,3.39 1.72,5.09 0.66,1.93 1.93,3.29 3.63,4.44 1.83,1.25 3.6,2.65 5.17,4.21 5.19,5.15 3.77,11.41 0.11,15.36 -3.39,3.65 -6.33,7.55 -9.09,11.67 -2.7,4.03 -7.4,5.6 -12.14,4.4 -0.31,-0.08 -0.63,-0.14 -0.92,-0.26 -3.05,-1.24 -6.11,-1.08 -9.29,-0.45 -2.2,0.43 -4.54,0.7 -6.75,0.46 -4.27,-0.46 -7.55,-2.88 -9.25,-6.75 -1.79,-4.07 -4.82,-6.76 -8.39,-9.06 -2.47,-1.59 -4.13,-3.72 -4.73,-6.62 -0.49,-2.38 0.07,-4.61 1.2,-6.68 0.66,-1.22 1.37,-2.51 2.37,-3.43 3.96,-3.64 5.55,-8.41 6.88,-13.38 0.68,-2.53 1.57,-5.01 2.5,-7.47 1.1,-2.91 3.34,-4.57 6.32,-5.33 0.61,-0.15 1.28,-0.33 1.75,-0.71 2.71,-2.23 5.96,-2.71 9.05,-2.98 z m 10.54,49.21 c 4.43,0 8.32,-3.59 8.37,-7.72 0.05,-4.3 -3.91,-8.04 -8.48,-8.01 -3.99,0.02 -8.01,4.14 -8.02,8.21 -0.01,3.92 3.87,7.52 8.13,7.52 z"
   id="path1" />
	<path
   d="m 492.1,63.04 c -5,1.29 -8.91,3.82 -10.26,9.23 -0.97,3.91 -2.99,7.19 -5.95,9.9 -1.08,0.99 -2.31,1.44 -3.74,0.91 -1.99,-0.73 -2.7,-3.16 -1.44,-4.97 0.41,-0.59 0.94,-1.09 1.41,-1.63 1.51,-1.77 2.46,-3.81 2.87,-6.1 1.19,-6.66 5.67,-10.54 11.35,-13.42 0.13,-0.07 0.27,-0.13 0.56,-0.26 -4.37,-2.52 -6.63,-6.64 -8.83,-10.74 -1.37,-2.55 -2.29,-5.34 -3.44,-8.01 -0.43,-1 -1.01,-2.32 -2.16,-2.01 -0.78,0.21 -1.51,1.47 -1.78,2.41 -0.26,0.91 0.04,2.01 0.19,3.01 0.07,0.46 0.4,0.87 0.56,1.31 0.72,1.97 -0.02,3.95 -1.77,4.78 -1.78,0.85 -3.79,0.24 -4.87,-1.56 -2.43,-4.04 -2.48,-8.14 -0.25,-12.28 0.17,-0.32 0.36,-0.62 0.56,-0.92 3.78,-5.89 11.34,-5.95 15.09,0 1.35,2.14 2.35,4.53 3.23,6.91 1.13,3.03 2.76,5.75 4.67,8.31 0.61,0.81 1.44,1.49 2.25,2.11 1.64,1.26 3.33,2.46 5.03,3.63 0.27,0.18 0.73,0.26 1.04,0.17 1.48,-0.44 2.4,-1.53 3.05,-2.86 1.29,-2.65 2.53,-5.33 3.83,-7.97 0.55,-1.11 1.23,-2.14 1.84,-3.22 2.2,-3.88 5.65,-6.17 9.68,-7.82 1.43,-0.58 2.75,-1.44 4.09,-2.22 1.53,-0.89 2.65,-2.1 3.17,-3.87 0.39,-1.31 1.28,-2.31 2.67,-2.69 2.75,-0.75 5.22,1.57 4.54,4.4 -0.6,2.52 -1.65,4.92 -3.81,6.48 -2.32,1.68 -4.66,3.51 -7.28,4.51 -4,1.54 -6.58,4.2 -8.32,7.92 -1.18,2.53 -2.36,5.06 -3.59,7.56 -1.36,2.75 -3.26,5 -6.12,6.33 -0.27,0.13 -0.58,0.6 -0.54,0.87 0.45,2.95 1.11,5.85 3.45,7.95 0.85,0.77 1.95,1.55 3.03,1.72 2.79,0.44 5.62,0.68 8.44,0.74 3.77,0.08 7.37,0.8 10.84,2.26 0.85,0.36 1.68,0.74 2.5,1.16 3.48,1.79 6.95,0.94 10.36,-0.12 4.73,-1.46 9.38,-1.23 14.03,0.23 3.85,1.21 7.79,1.45 11.73,0.83 2.95,-0.46 5.69,-1.51 7.61,-4.07 0.48,-0.64 1.23,-1.15 1.96,-1.51 1.43,-0.7 3.06,-0.25 3.98,0.96 0.94,1.23 0.85,2.79 -0.11,4.1 -4.02,5.46 -9.64,7.7 -16.21,8.17 -3.61,0.26 -7.11,-0.12 -10.53,-1.2 -3.78,-1.2 -7.51,-1.34 -11.3,-0.12 -1.1,0.35 -2.25,0.54 -3.37,0.84 -4.51,1.25 -8.63,-0.1 -12.62,-1.96 -2.84,-1.33 -5.78,-1.97 -8.9,-2.09 -3.02,-0.12 -6.07,-0.22 -9.05,-0.7 -6.89,-1.1 -10.37,-5.88 -12.39,-12.04 -0.32,-0.98 -0.47,-2.01 -0.71,-3.02 -0.03,-0.07 -0.11,-0.13 -0.27,-0.33 z"
   id="path2" />
	<path
   d="m 106.17,68.5 c -2.62,1.38 -4.87,3.12 -5.45,5.96 C 99.25,81.62 93.3,85.43 86.01,84.33 83.81,84 81.72,84.27 79.65,85 77.72,85.68 75.76,85.99 73.67,85.91 67.6,85.67 63.48,79.7 66.31,73.1 c 2.12,-4.95 6.19,-6.66 11.06,-7.34 1.27,-0.17 2.53,-0.37 3.79,-0.54 2.57,-0.34 4.67,-1.62 6.05,-3.7 2.32,-3.5 5.78,-5.54 9.14,-7.75 1.53,-1.01 3.37,-1.66 4.66,-2.89 1.61,-1.54 3.06,-3.38 4.1,-5.34 1.43,-2.7 2.46,-5.61 3.57,-8.47 0.67,-1.71 0.81,-3.48 -0.05,-5.22 -1.2,-2.44 -4.02,-3.56 -6.43,-2.28 -1.49,0.79 -2.84,1.89 -4.13,2.99 -2.52,2.15 -4.15,4.95 -5.83,7.79 -2.85,4.8 -7.11,8 -12.5,9.65 -1.29,0.4 -2.52,0.98 -3.78,1.48 -2.45,0.98 -3.4,2.97 -3.69,5.42 -0.09,0.79 -0.13,1.59 -0.27,2.38 -0.34,1.9 -1.88,3.15 -3.6,2.98 -1.78,-0.18 -3.09,-1.61 -2.99,-3.57 0.11,-1.94 0.28,-3.91 0.74,-5.79 1.24,-5.01 5.09,-7.49 9.52,-9.33 0.77,-0.32 1.58,-0.57 2.37,-0.85 3.95,-1.41 6.78,-4.05 8.71,-7.75 2.52,-4.85 6.2,-8.68 10.89,-11.46 4.76,-2.82 9.73,-2.75 14.07,0.55 4.39,3.34 5.96,8.18 4.52,13.57 -0.85,3.17 -2.19,6.23 -3.5,9.26 -1.16,2.65 -1.49,5.11 -0.31,7.92 2.26,5.4 2.28,11.01 0.82,16.66 -0.25,0.95 -0.4,1.97 -0.38,2.95 0.04,3.1 2.2,4.95 5.31,4.64 0.59,-0.06 1.18,-0.21 1.77,-0.3 1.96,-0.31 3.73,0.81 4.25,2.67 0.5,1.8 -0.36,3.77 -2.23,4.34 -1.58,0.48 -3.32,0.89 -4.92,0.71 -3.73,-0.41 -7.39,-1.32 -9.59,-4.82 -1.49,-2.38 -2.21,-5.05 -2.08,-7.86 0.07,-1.42 0.39,-2.84 0.6,-4.25 0.07,-0.36 0.14,-0.7 0.2,-1.05 z m -0.56,-11.53 c -2.48,1.45 -4.65,2.56 -6.64,3.94 -2.27,1.58 -4.45,3.23 -6.18,5.54 -2.44,3.28 -5.82,5.4 -9.99,6.02 -1.89,0.28 -3.79,0.56 -5.67,0.91 -0.81,0.15 -1.62,0.43 -2.38,0.76 -1.09,0.48 -2.14,2.75 -1.76,3.64 0.28,0.65 1.72,1 3.08,0.49 3.86,-1.44 7.78,-1.88 11.88,-1.32 2.93,0.4 4.79,-1.05 5.41,-3.97 1.02,-4.75 4.12,-8.01 8.02,-10.55 1.63,-1.06 2.82,-2.43 3.91,-3.95 0.23,-0.3 0.18,-0.8 0.32,-1.51 z"
   id="path3" />
	<path
   d="m 393.12,60.02 c -5.57,0.03 -8.85,-1.49 -12.1,-3.17 -0.87,-0.45 -1.85,-0.72 -2.8,-0.95 -1.41,-0.34 -2.62,0.07 -3.77,1 -0.98,0.8 -2.13,1.41 -3.24,2.03 -0.66,0.37 -1.02,0.92 -0.72,1.55 0.19,0.4 0.79,0.72 1.26,0.83 0.56,0.13 1.19,0.02 1.79,-0.02 5.03,-0.39 8.76,1.71 10.69,6.34 0.8,1.93 2.04,2.61 4,2.69 2.22,0.09 4.46,0.29 6.65,0.69 2.65,0.48 4.77,1.98 6.47,4.05 2.4,2.93 5.46,3.98 9.16,3.24 0.43,-0.09 0.87,-0.15 1.31,-0.16 2.03,-0.06 3.59,1.2 3.92,3.13 0.3,1.74 -0.77,3.53 -2.63,4.03 -1.49,0.4 -3.07,0.75 -4.6,0.72 -4.83,-0.11 -9.13,-1.71 -12.27,-5.5 -1.56,-1.88 -3.41,-2.59 -5.72,-2.69 -1.95,-0.09 -3.91,-0.23 -5.83,-0.56 -3.01,-0.5 -5.14,-2.25 -6.46,-4.99 -0.19,-0.39 -0.37,-0.79 -0.55,-1.19 -0.96,-2.14 -1.41,-2.44 -3.76,-2.3 -2.09,0.12 -4.14,0.05 -6.1,-0.87 -2.98,-1.39 -4.67,-3.68 -4.92,-6.95 -0.26,-3.34 0.72,-6.13 3.74,-7.98 1.66,-1.02 3.27,-2.14 4.93,-3.18 3.59,-2.24 7.34,-1.81 11.06,-0.44 1.94,0.72 3.75,1.76 5.66,2.58 1.54,0.66 3.16,0.77 4.82,0.42 1.12,-0.24 1.96,-0.83 2.23,-1.92 0.34,-1.42 0.71,-2.89 0.71,-4.34 0.02,-3.03 0.76,-5.81 2.11,-8.5 1.35,-2.68 0.08,-5.07 -2.95,-5.34 -1.44,-0.13 -2.98,0.01 -4.37,0.38 -5.29,1.42 -10.61,1.98 -15.99,0.75 -1.53,-0.35 -3,-1.06 -4.45,-1.72 -2.2,-1 -4.36,-1.91 -6.9,-1.46 -2.2,0.39 -3.42,1.43 -3.56,3.66 -0.06,1.05 0.06,2.18 0.41,3.16 1.87,5.3 1.79,10.57 -0.1,15.82 -1.67,4.65 -1.05,9.06 1.31,13.24 3.26,5.76 3.55,11.54 0.56,17.46 -0.27,0.53 -0.58,1.06 -0.97,1.5 -1.17,1.33 -2.94,1.58 -4.33,0.67 -1.34,-0.88 -1.77,-2.53 -1.16,-4.14 0.52,-1.37 1.03,-2.76 1.38,-4.18 0.65,-2.67 -0.3,-5.06 -1.69,-7.25 -1.77,-2.78 -2.71,-5.84 -3.3,-9.03 -0.6,-3.26 -0.13,-6.42 0.79,-9.56 0.41,-1.37 0.8,-2.75 1.11,-4.15 0.62,-2.82 0.13,-5.54 -0.78,-8.22 -0.91,-2.66 -1.14,-5.36 -0.33,-8.11 1.54,-5.21 5.17,-7.96 11.08,-8.43 3.31,-0.26 6.37,0.61 9.22,2.12 4.13,2.19 8.44,2.09 12.83,1.3 2.39,-0.43 4.75,-1.13 7.16,-1.36 5.45,-0.52 10.6,2.53 12.53,7.21 0.97,2.35 1.26,4.83 0.04,7.07 -1.67,3.08 -2.16,6.33 -2.36,9.75 -0.09,1.6 -0.55,3.24 -1.16,4.73 -1.81,4.38 -5.53,6.54 -9.06,6.54 z"
   id="path4" />
	<path
   d="m 178.82,83.66 c -4.57,-0.02 -7.78,-1.52 -9.61,-5.47 -1.12,-2.41 -3.01,-3.92 -5.74,-4.38 -3.27,-0.56 -5.88,-2.43 -8.21,-4.66 -0.81,-0.77 -1.68,-1.19 -2.74,-1.26 -2.39,-0.16 -4.8,-0.16 -7.17,-0.47 -7.63,-0.99 -11.02,-8.69 -6.63,-15.01 2.06,-2.97 5.15,-3.71 8.5,-3.1 3.16,0.58 6.25,1.05 9.5,0.7 3.37,-0.36 6.54,0.62 9.48,2.39 0.97,0.58 2.32,1.12 3.33,0.92 2.26,-0.46 4.05,-1.83 4.75,-4.21 0.44,-1.49 0.86,-2.99 1.24,-4.49 0.48,-1.86 -0.12,-3.47 -1.78,-4.4 -1.66,-0.93 -3.44,-1.66 -5.13,-2.56 -2.1,-1.12 -4.42,-2.03 -6.16,-3.57 -2.64,-2.33 -5.39,-2.7 -8.55,-1.77 -1.57,0.46 -3.15,0.91 -4.72,1.36 -3.39,0.98 -6.75,1.01 -10.15,-0.02 -2.74,-0.82 -4.7,0.07 -6.21,2.46 -1.93,3.04 -2.05,6.24 -0.54,9.35 2.15,4.42 1.83,8.78 0.35,13.24 -1.07,3.22 -0.43,5.17 2.46,7.01 5.33,3.4 5.79,9.95 2.83,14.66 -1.43,2.28 -3.74,3.48 -6.3,4.03 -2.72,0.58 -5.07,-1.79 -4.38,-4.25 0.39,-1.38 1.36,-2.09 2.72,-2.38 1.77,-0.38 2.35,-0.94 2.56,-2.38 0.26,-1.8 -0.15,-2.68 -1.68,-3.59 -5.23,-3.09 -7.42,-8.98 -5.53,-14.74 0.33,-1.02 0.57,-2.07 0.82,-3.11 0.39,-1.64 0.27,-3.22 -0.44,-4.78 -1.65,-3.64 -2.5,-7.47 -1.53,-11.41 1.21,-4.87 3.63,-8.9 8.54,-11 2.55,-1.09 5.15,-1.28 7.73,-0.44 2.77,0.9 5.41,0.65 8.11,-0.18 1.94,-0.6 3.91,-1.14 5.91,-1.53 4.42,-0.86 8.42,0.06 11.83,3.09 1.76,1.57 3.81,2.54 5.99,3.41 2.06,0.83 4.06,1.89 5.93,3.1 4.07,2.63 5.86,7.56 4.61,12.25 -0.46,1.73 -1.05,3.43 -1.43,5.18 -0.92,4.23 -7.4,9.61 -12.58,9.33 -2.23,-0.12 -4.26,-0.8 -6.09,-1.96 -2.18,-1.38 -4.49,-1.83 -6.98,-1.44 -3.12,0.49 -6.12,-0.17 -9.13,-0.82 -1.72,-0.37 -2.23,0.04 -2.1,1.79 0.03,0.39 0.36,0.97 0.69,1.08 0.85,0.28 1.77,0.41 2.68,0.5 2.26,0.22 4.54,0.31 6.8,0.58 2.04,0.24 3.82,1.11 5.27,2.6 1.77,1.82 3.83,2.98 6.37,3.54 4.43,0.97 7.46,3.86 9.48,7.79 0.62,1.21 1.44,1.6 2.65,1.54 0.96,-0.05 1.91,-0.16 2.87,-0.17 2.16,-0.02 3.8,1.38 3.99,3.35 0.19,1.97 -1.16,3.65 -3.31,4.01 -1.2,0.18 -2.4,0.22 -3.17,0.29 z"
   id="path5" />
	<path
   d="m 326.12,62.6 c -3.33,0.3 -6.28,0.55 -9.22,0.85 -2.69,0.28 -5.36,0.29 -7.92,-0.71 -3.57,-1.41 -6.3,-4.04 -8.01,-7.26 -1.66,-3.12 -4.17,-4.66 -7.11,-5.97 -1.13,-0.5 -2.22,-1.1 -3.32,-1.65 -5.77,-2.88 -6.52,-8.44 -5.28,-12.86 1.93,-6.9 8.82,-10.79 16.22,-9.16 2.39,0.52 4.75,1.23 6.71,2.75 3.3,2.54 6.67,2.04 10.15,0.49 2.03,-0.9 4.06,-2.03 6.21,-2.4 3.39,-0.58 6.87,-0.48 10.07,1.16 4.63,2.37 6.58,7.02 5.34,12.09 -1.37,5.63 -7.77,9.7 -11.95,10.11 -0.47,0.05 -0.96,0.03 -1.43,-0.05 -1.72,-0.3 -2.85,-1.57 -2.89,-3.17 -0.03,-1.61 1.04,-3.01 2.75,-3.28 2.23,-0.35 3.91,-1.51 5.37,-3.12 1.19,-1.31 1.43,-2.88 0.87,-4.46 -0.52,-1.46 -1.91,-1.72 -3.31,-1.93 -2.52,-0.39 -4.78,0.11 -7.01,1.33 -3.5,1.91 -7.26,2.89 -11.3,2.41 -2.16,-0.25 -4.08,-1.12 -5.85,-2.3 -1.82,-1.21 -3.73,-2.14 -5.92,-2.43 -3.88,-0.53 -6.93,1.8 -7.02,5.34 -0.03,1.3 0.43,2.23 1.61,2.82 2.29,1.14 4.56,2.3 6.85,3.43 2.75,1.36 4.6,3.51 6.14,6.16 1.02,1.78 2.55,3.43 4.23,4.6 1.06,0.74 2.82,0.72 4.25,0.67 2.67,-0.1 5.33,-0.49 8,-0.71 3.45,-0.28 6.87,-0.11 10.23,0.78 3.76,0.99 5.99,3.46 6.64,7.21 0.63,3.67 -0.35,6.88 -3.46,9.22 -0.57,0.43 -1.12,0.96 -1.76,1.24 -2.89,1.26 -4.66,3.65 -6.41,6.1 -2.46,3.44 -5.79,5.57 -9.97,6.25 -2.95,0.48 -5.72,-0.3 -8.33,-1.62 -2.78,-1.4 -5.62,-2.36 -8.76,-1.56 -1.08,0.27 -2.11,0.71 -3.15,1.13 -2.39,0.96 -4.83,1.75 -7.45,1.39 -6.73,-0.92 -10.49,-7.66 -7.85,-13.91 0.72,-1.72 1.26,-3.51 1.88,-5.27 0.3,-0.85 0.18,-1.57 -0.38,-2.34 -1.16,-1.6 -0.91,-3.62 0.49,-4.88 1.4,-1.26 3.38,-1.29 4.93,-0.02 2.45,2.02 3.12,4.73 2.48,7.67 -0.53,2.43 -1.41,4.8 -2.28,7.14 -0.43,1.16 -0.7,2.25 0.06,3.29 0.77,1.04 1.93,1.05 3.06,0.75 0.96,-0.26 1.92,-0.57 2.82,-0.98 5.28,-2.37 10.53,-2.3 15.76,0.12 0.69,0.32 1.37,0.65 2.06,0.97 2.96,1.39 6,0.69 8.07,-1.86 0.38,-0.47 0.75,-0.93 1.09,-1.43 1.99,-2.95 4.33,-5.49 7.61,-7.1 0.97,-0.47 2.17,-0.99 2.15,-2.46 -0.01,-0.99 -0.32,-1.74 -1.41,-1.89 -1.91,-0.25 -3.81,-0.49 -5.35,-0.69 z"
   id="path6" />
	<path
   d="m 228.67,32.19 c 2.61,-3.23 6.14,-4.57 9.81,-5.67 -0.05,-1.15 -0.15,-2.22 -0.14,-3.28 0.02,-2.17 1.44,-3.69 3.4,-3.72 1.96,-0.02 3.41,1.46 3.51,3.63 0.03,0.71 0.01,1.43 0.01,2.05 2.79,0.57 5.46,1.12 8.27,1.7 0.25,-0.94 0.54,-2.04 0.85,-3.14 0.17,-0.57 0.33,-1.16 0.61,-1.68 0.84,-1.6 2.63,-2.29 4.28,-1.7 1.62,0.58 2.61,2.3 2.19,4.04 -0.4,1.66 -0.89,3.31 -1.4,4.94 -0.37,1.2 -0.22,2.07 0.96,2.8 1.99,1.24 3.88,2.63 5.94,4.06 0.23,-0.55 0.35,-0.82 0.45,-1.1 1.19,-3.42 2.35,-6.85 3.59,-10.26 0.66,-1.81 2.21,-2.78 3.87,-2.57 1.71,0.22 3.08,1.51 3.16,3.23 0.04,0.84 -0.19,1.75 -0.49,2.55 -1.14,3.01 -2.39,5.99 -3.55,8.99 -0.72,1.84 -0.61,1.77 0.75,3.12 3.71,3.68 5.28,8.1 4.21,13.28 -0.98,4.74 -3.9,8.11 -7.86,10.7 -5.88,3.84 -12.25,4.48 -18.96,2.82 -2.05,-0.51 -4.09,-1.08 -6.17,-1.48 -3.64,-0.71 -7.14,0.02 -10.57,1.26 -3.52,1.28 -7.13,1.69 -10.84,0.91 -2.12,-0.45 -3.99,-1.37 -5.56,-2.87 -2.19,-2.09 -4.46,-4.12 -6.56,-6.31 -3.76,-3.91 -5.06,-8.61 -3.81,-13.88 0.36,-1.5 1.31,-2.86 2.06,-4.41 -0.89,-1.22 -2.03,-2.6 -2.97,-4.11 -1.47,-2.36 -0.17,-5.14 2.47,-5.42 1.56,-0.16 2.66,0.62 3.51,1.86 0.75,1.08 1.48,2.18 2.29,3.21 0.21,0.27 0.74,0.5 1.07,0.43 1.72,-0.35 3.41,-0.79 5.28,-1.24 -0.95,-2.3 -1.88,-4.65 -2.89,-6.96 -0.7,-1.6 -0.59,-3.08 0.48,-4.23 0.98,-1.06 2.54,-1.49 3.83,-0.84 0.75,0.37 1.47,1 1.93,1.69 0.54,0.81 0.82,1.8 1.16,2.73 0.5,1.34 0.95,2.7 1.42,4.05 0.08,0.19 0.19,0.36 0.41,0.82 z m 29.78,28.47 c 0.02,-0.11 0.04,-0.22 0.06,-0.33 4.17,0.09 7.68,-1.39 10.75,-4.2 3.53,-3.23 3.55,-9.58 -1.72,-11.72 -4.38,-1.78 -8.49,-4.05 -12.12,-7.12 -1.3,-1.1 -2.73,-2.09 -4.22,-2.91 -4.39,-2.42 -8.93,-1.88 -13.46,-0.42 -0.36,0.12 -0.69,0.39 -0.97,0.65 -0.67,0.63 -1.28,1.32 -1.94,1.95 -3.51,3.3 -7.43,5.74 -12.42,6.09 -1.17,0.08 -2.38,0.4 -3.46,0.87 -1.48,0.64 -2.86,1.64 -3.15,3.34 -0.43,2.49 0.23,4.75 2.08,6.56 2,1.95 3.98,3.92 6.09,5.75 0.73,0.64 1.77,1.1 2.74,1.27 2.45,0.42 4.84,-0.12 7.15,-0.99 5.29,-1.99 10.66,-2.15 16.12,-0.76 2.8,0.71 5.64,1.32 8.47,1.97 z"
   id="path7" />
	<path
   d="m 48.39,38.76 c -0.34,-2.51 -0.5,-5.07 -1.08,-7.53 -0.64,-2.73 -4.43,-4.05 -6.79,-2.53 -0.41,0.26 -0.77,0.72 -0.96,1.16 -2.14,4.84 -5.91,7.57 -11.03,8.61 -1.37,0.28 -2.75,0.54 -4.09,0.92 -4.11,1.18 -5.54,4.3 -3.88,8.25 0.55,1.31 1.03,2.67 1.37,4.05 0.53,2.17 0.16,4.29 -0.84,6.27 -1.1,2.19 -1.65,4.47 -1.41,6.93 0.1,1 0.52,1.72 1.41,2.2 1.02,0.55 2.02,1.12 3.02,1.71 2.28,1.34 4.14,3.1 5.49,5.4 0.42,0.72 0.89,1.43 1.45,2.04 1.41,1.54 2.8,1.82 4.74,1.04 2.64,-1.06 5.38,-1.49 8.21,-1.33 0.88,0.05 1.76,0.11 2.64,0.13 3.45,0.06 5.09,-2.73 3.54,-5.82 -0.87,-1.73 -1.57,-3.55 -2.15,-5.39 -0.25,-0.79 -0.08,-1.75 0.07,-2.6 0.34,-1.94 1.97,-3.24 3.79,-3.15 1.92,0.09 3.5,1.54 3.51,3.56 0.01,1.49 0.53,2.69 1.24,3.9 3.7,6.28 1.09,11.7 -3.61,15.48 -1.99,1.6 -4.48,1.68 -6.88,1.49 -3.12,-0.25 -6.05,0.02 -9.02,1.19 -4.16,1.65 -9.47,-0.45 -12.54,-4.55 -0.1,-0.13 -0.2,-0.25 -0.27,-0.4 -1.42,-2.9 -3.82,-4.7 -6.66,-6.1 -3.55,-1.75 -5.25,-4.78 -5.51,-8.64 -0.22,-3.24 0.25,-6.39 1.76,-9.29 0.84,-1.61 0.83,-3.09 0.06,-4.67 -1.44,-2.95 -2.02,-6.04 -1.31,-9.29 1.08,-4.97 4.51,-7.74 9.03,-9.36 1.9,-0.68 3.95,-0.94 5.93,-1.43 2.2,-0.54 3.92,-1.73 4.92,-3.82 3.04,-6.41 9.51,-8.4 15.85,-5.2 5.08,2.56 6.67,6.91 7.07,12.03 0.14,1.82 -0.01,3.67 -0.12,5.49 -0.14,2.24 -0.31,4.5 0.7,6.58 0.53,1.08 1.27,2.11 2.12,2.97 1.43,1.45 1.79,3.15 0.74,4.6 -1.06,1.47 -3.03,1.87 -4.7,0.74 -3.53,-2.39 -5.25,-5.93 -5.87,-10.02 -0.28,-1.84 -0.27,-3.73 -0.39,-5.6 0.17,0.01 0.31,-0.01 0.45,-0.02 z"
   id="path8" />
	<path
   d="m 190.38,72.63 c 0.09,-3.93 0.96,-7.39 2.86,-10.61 0.87,-1.47 1.56,-3.05 2.24,-4.61 0.61,-1.41 0.57,-2.85 0.03,-4.31 -0.5,-1.34 -0.83,-2.75 -1.35,-4.08 -1.53,-3.93 -1.15,-7.74 0.61,-11.48 0.61,-1.3 1.2,-2.61 1.94,-3.84 1.03,-1.71 1.08,-3.46 0.47,-5.28 -0.42,-1.24 -0.94,-2.46 -1.36,-3.7 -0.69,-2.02 0.03,-3.79 1.78,-4.48 1.7,-0.66 3.47,0.09 4.32,1.96 1.12,2.46 2.35,4.87 2.63,7.65 0.25,2.51 -0.29,4.81 -1.37,7.05 -0.73,1.5 -1.36,3.06 -1.99,4.61 -0.66,1.62 -0.62,3.24 -0.01,4.9 0.6,1.64 1.05,3.34 1.64,4.99 1.39,3.88 0.31,7.47 -1.24,10.99 -0.5,1.13 -1.13,2.2 -1.78,3.25 -1.59,2.55 -2.06,5.32 -1.79,8.26 0.18,1.98 0.74,2.21 2.56,1.45 1.82,-0.77 3.71,-1.46 5.63,-1.94 2.7,-0.67 5.39,-0.31 8.03,0.53 1.56,0.5 3.13,0.97 4.72,1.35 2.72,0.65 5.42,0.31 8.04,-0.51 5.62,-1.75 10.98,-1.04 16.15,1.54 2.54,1.26 5.05,1.18 7.67,0.33 4.49,-1.46 9.08,-2.21 13.81,-1.6 2.39,0.31 4.65,1 6.84,2.05 1.44,0.69 3.1,0.97 4.7,1.24 3.01,0.53 4.45,3.61 2.69,5.92 -0.84,1.1 -2.02,1.53 -3.37,1.52 -2.36,-0.02 -4.65,-0.54 -6.69,-1.66 -3.97,-2.19 -8.13,-2.08 -12.35,-1.24 -2.46,0.49 -4.86,1.29 -7.32,1.76 -2.87,0.55 -5.64,-0.06 -8.3,-1.18 -1.03,-0.43 -2.08,-0.83 -3.09,-1.28 -2.36,-1.06 -4.78,-1.13 -7.27,-0.55 -2.06,0.48 -4.12,1.01 -6.21,1.3 -3.81,0.53 -7.5,-0.21 -11.06,-1.52 -3.33,-1.23 -6.4,-0.96 -9.56,0.66 -4.53,2.32 -8.9,1.3 -11.48,-2.47 -1.5,-2.16 -1.67,-4.68 -1.77,-6.97 z"
   id="path9" />
	<path
   d="m 562.56,69.04 c -2.12,-0.25 -3.8,-0.35 -5.44,-0.65 -3.95,-0.72 -7.78,-0.52 -11.72,0.44 -4.69,1.14 -9.34,0.38 -13.74,-1.76 -3.09,-1.5 -6.27,-2.77 -9.81,-2.71 -1.03,0.02 -2.08,-0.11 -3.09,-0.31 -3.17,-0.62 -5.26,-3.14 -5.26,-6.35 0,-3.97 1.19,-7.47 4.4,-10.03 2.33,-1.86 4.66,-3.72 7.1,-5.44 0.92,-0.65 2.1,-0.97 3.2,-1.3 2.86,-0.86 5.1,-2.58 7.05,-4.76 1.12,-1.25 2.17,-2.56 3.33,-3.76 6.04,-6.2 15.25,-6.14 21.18,0.2 1.46,1.57 2.72,3.34 3.98,5.08 1.8,2.48 3.78,4.69 6.66,6.02 1.32,0.61 2.58,1.47 3.69,2.42 2.58,2.19 3.63,5.05 3.29,8.43 -0.68,6.64 -4.67,10.83 -10.35,13.61 -1.44,0.69 -3.24,0.64 -4.47,0.87 z m -0.15,-7.52 c 0.61,-0.15 1.69,-0.17 2.47,-0.66 1.24,-0.77 2.52,-1.68 3.35,-2.84 1.99,-2.76 3.08,-5.9 -1.25,-7.74 -0.33,-0.14 -0.61,-0.38 -0.94,-0.52 -2.3,-0.98 -4.16,-2.55 -5.72,-4.45 -1.85,-2.25 -3.56,-4.61 -5.36,-6.89 -2.73,-3.46 -7.89,-4.67 -11.44,-0.39 -1.1,1.32 -2.21,2.63 -3.39,3.87 -2.72,2.84 -5.89,5 -9.7,6.14 -2.81,0.84 -5.08,2.52 -6.88,4.77 -1.44,1.8 -0.46,3.68 1.77,4.27 3.03,0.8 6.11,1.65 8.93,2.98 3.83,1.81 7.63,2.21 11.62,1.04 2.38,-0.7 4.77,-0.96 7.23,-0.69 2.97,0.33 5.94,0.71 9.31,1.11 z"
   id="path10" />
	<path
   d="m 558.45,18.84 c 0.3,0.07 0.92,0.11 1.45,0.35 3.86,1.73 7.6,3.69 9.62,7.68 1.36,2.68 3.63,4.13 6.27,5.23 2.99,1.24 5.24,3.32 6.77,6.16 0.76,1.4 0.86,2.82 -0.05,4.19 -1.35,2.03 -4.47,2.28 -5.82,0.17 -1.59,-2.5 -3.9,-3.76 -6.41,-4.92 -2.54,-1.17 -4.63,-2.95 -5.84,-5.46 -1.67,-3.47 -4.26,-5.76 -7.81,-7.15 -1.55,-0.61 -2.23,-2.17 -1.86,-3.73 0.36,-1.51 1.71,-2.52 3.68,-2.52 z"
   id="path11" />
	<path
   d="m 458.73,29.36 c -2.01,-0.04 -3.28,-0.61 -4.08,-1.97 -1.13,-1.92 -2.59,-3.33 -4.81,-4.05 -2.1,-0.68 -2.98,-2.8 -2.26,-4.73 0.69,-1.85 2.66,-2.76 4.74,-2.15 2.4,0.7 4.48,1.96 6.02,3.93 0.65,0.83 1.18,0.85 2.1,0.52 1.3,-0.47 2.68,-0.78 4.06,-0.97 2.03,-0.28 3.68,0.97 3.94,2.8 0.25,1.8 -0.96,3.18 -2.91,3.77 -1.65,0.5 -3.2,1.32 -4.8,2 -0.8,0.35 -1.59,0.68 -2,0.85 z"
   id="path12" />
	<path
   d="m 543.82,15.8 c 1.84,-0.01 3.22,0.91 3.64,2.54 0.41,1.57 -0.35,3.29 -2.05,3.82 -1.68,0.53 -3.48,0.83 -5.25,0.92 -1.64,0.09 -2.92,-1.28 -3.13,-2.89 -0.2,-1.52 0.67,-3.08 2.23,-3.53 1.48,-0.42 3.03,-0.58 4.56,-0.86 z"
   id="path13" />
	<path
   d="m 446.5,66.72 c -2.09,-0.06 -3.74,-1.62 -3.68,-3.49 0.06,-1.83 1.64,-3.27 3.5,-3.2 2.12,0.08 3.71,1.6 3.67,3.51 -0.04,1.85 -1.57,3.24 -3.49,3.18 z"
   id="path14" />
	<path
   d="m 243.89,39.85 c 2.49,0.04 4.26,1.75 4.24,4.08 -0.03,2.59 -2.39,5.04 -4.83,5.02 -2.51,-0.02 -4.3,-1.91 -4.25,-4.49 0.04,-2.53 2.27,-4.65 4.84,-4.61 z"
   id="path15" />
	<path
   d="m 552.82,49.66 c 0,2.45 -1.96,4.52 -4.3,4.54 -2.31,0.02 -4.48,-2.19 -4.48,-4.56 0,-2.48 2.12,-4.63 4.55,-4.61 2.26,0.01 4.23,2.17 4.23,4.63 z"
   id="path16" />
</g>
</svg>
